<svg width="95" height="28" viewBox="0 0 95 28" fill="none" xmlns="http://www.w3.org/2000/svg">
<path d="M84.1695 0.160187V0.768882C89.9222 1.66591 89.3115 3.01145 86.0656 11.373L81.5984 22.9062L75.5565 7.17621C74.5923 4.61328 72.8247 1.34554 78.1597 0.768882V0.160187H45.5396V0.768882C49.8139 1.5698 50.7781 2.69108 50.8102 6.50344L51.003 21.1121L32.363 0.192223H18.9614V0.800919C24.2321 1.28147 24.6177 3.62014 24.6177 8.68193V12.8787C24.6177 17.7483 25.4212 25.9817 17.2581 25.9817C6.90966 25.9817 8.13091 15.6659 8.13091 14.897V6.72769C8.13091 2.33868 8.19518 1.53776 13.1444 0.768882V0.160187H0.12854V0.768882C4.66 1.40961 4.69214 2.59497 4.82069 6.72769V15.6979C4.82069 18.9016 3.59944 27.8398 15.2977 27.8398C23.6857 27.8398 25.7425 22.5858 25.8711 17.46L26.0961 8.71396C26.2567 3.45996 25.4533 0.800919 28.8599 0.800919C32.2666 0.800919 31.5595 3.49199 31.5595 7.46453V13.4554C31.5595 22.5217 31.7524 26.206 26.6424 26.7826V27.3913H37.9229V26.7826C32.4594 25.6293 32.6844 23.579 32.6844 13.6796V6.31122C39.0477 13.5835 45.7967 19.8307 51.8065 27.3913L52.2885 27.2632C52.0957 18.5492 52.4492 9.67506 52.4492 5.25401C52.4492 2.49886 52.8992 0.768882 55.3095 0.768882C57.9127 0.768882 57.7199 2.62701 57.8484 6.72769V20.7918C57.7199 24.9245 57.6877 26.1098 53.1563 26.7506V27.3593H71.7642L73.9174 19.9268L73.4354 19.6705C70.5429 24.7963 69.5788 26.6545 63.8582 26.238L61.7371 25.8856C61.1586 23.9634 61.1586 21.849 61.1586 19.8307V6.72769C61.1586 2.59497 61.8014 0.768882 65.5294 0.768882C69.2574 0.768882 70.4465 3.81236 71.5714 6.79177L80.0879 27.3913H80.8271L87.8332 10.2517C90.1793 4.32495 91.272 1.12129 94.8072 0.800919V0.160187H84.1695Z" fill="white"/>
</svg>
